<?xml version="1.0" encoding="utf-8"?>
<!-- Generator: Adobe Illustrator 21.0.0, SVG Export Plug-In . SVG Version: 6.00 Build 0)  -->
<svg version="1.1" id="Layer_1" xmlns="http://www.w3.org/2000/svg" xmlns:xlink="http://www.w3.org/1999/xlink" x="0px" y="0px"
	 viewBox="0 0 502.6 165.8" style="enable-background:new 0 0 502.6 165.8;" xml:space="preserve">
<style type="text/css">
	.st0{fill:#FFFFFF;}
</style>
<g>
	<path class="st0" d="M134.3,126.7c0,11.6,1,12.6,17,13.9l-1.8,6.6H95v-6.6c13-1.2,14.1-2.3,14.1-13.9V81c0-12.6-0.4-12.8-13.6-14.3
		v-5.6c12-1.7,25.2-4.6,38.9-7.4v13.6l0.4-0.8c3.2-4.2,1.2-1.5,5.3-6.4c3.7-4.4,9.3-6.4,14.4-6.4c7.9,0,13.9,5.8,13.9,12.6
		c0,6.8-4.5,12.8-9.7,14.7c-2.7,1-4.8,0.4-6.4-0.8c-3.5-2.9-7-4.3-10.3-4.3c-3.5,0-6.2,2.9-7.5,6.7V126.7z"/>
	<path class="st0" d="M284.6,27c0-12.2-0.4-12.4-13.6-13.4v-6c8.9-1.4,25.4-4.3,38.9-7.2v126.2c0,11.8,1,12.8,14.3,14.1v6.6H278
		l-1.6-6.6c6.3-1.1,8.2-2.3,8.2-14.1V27z"/>
	<g>
		<path class="st0" d="M334.1,81c0-12.6-0.4-12.8-13.6-14.3v-5.6c12.2-1.7,25.9-4.6,38.9-7.4v72.8c0,11.8,1,12.8,14.3,14.1v6.6
			h-53.8v-6.6c13.2-1.2,14.3-2.3,14.3-14.1V81z"/>
		<path class="st0" d="M360.2,23.5c0,8.3-6.6,14.9-15.1,14.9c-8.1,0-15.1-6.6-15.1-14.9c0-8.5,7-15.1,15.1-15.1
			C353.5,8.4,360.2,15,360.2,23.5z"/>
	</g>
	<path class="st0" d="M166.6,69.9c0,6.4-5.1,11.6-11.7,11.6c-6.3,0-11.7-5.1-11.7-11.6c0-6.6,5.5-11.7,11.7-11.7
		C161.4,58.2,166.6,63.3,166.6,69.9z"/>
	<path class="st0" d="M404.4,96.7c5.2-1.2,8.7-4.3,11.2-7.4c3.1-4.1,10.3-14.1,13.7-19.4c2.3-3.7,3.1-5-0.6-5.6l-4.8-0.8v-6.6
		l42.6-1.9v6.6l-7.2,1.4c-6.8,1.5-10.8,2.9-17.4,9.9c-4.3,4.6-8.3,8.7-15.5,17.8c4.6,7.2,35.7,40.4,42.1,47.8c4.6,5,7,6.8,11.4,7.7
		l4.1,0.8v6.6H449l-38.4-45.5c-2.3-3.3-3.7-4.1-5.2-3.9h-1v22.3c0,11.8,1,12.8,14.9,14.1v6.6h-55v-6.6c14.7-1.2,15.7-2.3,15.7-14.1
		v-94c0-12.2-0.4-12.4-13.7-13.4v-6c8.9-1.4,24.6-4.3,38.1-7.2V96.7z"/>
	<path class="st0" d="M38.7,54.7l8.9-4.1c6.2-2.5,14.4-4.1,19.1-4.1c23.8,0,36.7,21.6,36.7,44.4c0,30.4-21.6,63.4-52.4,63.4
		c-11.4,0-23.6-5.7-37.4-11.3V26.5C13.4,14.3,13,14.1,0,13.2v-6C9.1,5.8,25,2.9,38.7,0V54.7z M38.7,125.9c0,2.9,0.4,5.2,1.2,7
		c1.2,2.9,6.8,6.9,14.7,7.3c11.8,0,26.4-17.7,26.4-43.3c0-25-13.4-35.4-29.1-35.4c-2.1,0-10.4,1.5-13.2,2.7V125.9z"/>
	<path class="st0" d="M220.3,35c-36.1,0-65.4,29.3-65.4,65.4c0,36.1,29.3,65.4,65.4,65.4c36.1,0,65.4-29.3,65.4-65.4
		C285.7,64.2,256.4,35,220.3,35z M249.3,145.3c-3.9,2.6-25.1,15-52.3,1.6c-30.1-14.8-26.2-43.4-26.2-43.4s0-1.2,0.3-3.1
		c7.2-30.9,42-37.7,45.2-38.3c0.1,0,0.1,0,0.2,0c0,0,0.1,0,0.1,0l0,0c11.3-2.1,19.6-7.2,20.3-13c21.1,7.5,36.2,27.6,36.2,51.3
		C273,119,263.6,135.5,249.3,145.3z"/>
	<g>
		<g>
			<path class="st0" d="M491.1,150.3l-0.9-0.6c-0.6-0.4-1-0.7-1.3-1.1c-0.3-0.3-0.4-0.8-0.4-1.2c0-0.7,0.2-1.2,0.7-1.7
				c0.5-0.4,1.1-0.6,1.8-0.6c0.7,0,1.4,0.2,2,0.6v1.4c-0.6-0.6-1.3-0.9-2-0.9c-0.4,0-0.7,0.1-1,0.3c-0.3,0.2-0.4,0.4-0.4,0.7
				c0,0.3,0.1,0.5,0.3,0.7c0.2,0.2,0.5,0.5,0.9,0.7l0.9,0.6c1.1,0.6,1.6,1.4,1.6,2.4c0,0.7-0.2,1.3-0.7,1.7
				c-0.5,0.4-1.1,0.7-1.8,0.7c-0.9,0-1.6-0.3-2.3-0.8v-1.6c0.7,0.8,1.4,1.3,2.3,1.3c0.4,0,0.7-0.1,1-0.3c0.3-0.2,0.4-0.5,0.4-0.8
				C492.3,151.3,491.9,150.8,491.1,150.3z"/>
		</g>
		<g>
			<path class="st0" d="M495.7,153.6h-1.3v-8.3h2l2.1,6.6l2-6.6h2v8.3h-1.3v-6.9l-2.1,6.9h-1.2l-2.2-7.1V153.6z"/>
		</g>
	</g>
</g>
</svg>
